<?xml version="1.0" encoding="UTF-8" standalone="no"?>
<!-- Created with Inkscape (http://www.inkscape.org/) -->

<svg
   xmlns:dc="http://purl.org/dc/elements/1.1/"
   xmlns:cc="http://creativecommons.org/ns#"
   xmlns:rdf="http://www.w3.org/1999/02/22-rdf-syntax-ns#"
   xmlns:svg="http://www.w3.org/2000/svg"
   xmlns="http://www.w3.org/2000/svg"
   xmlns:sodipodi="http://sodipodi.sourceforge.net/DTD/sodipodi-0.dtd"
   xmlns:inkscape="http://www.inkscape.org/namespaces/inkscape"
   width="461.63498mm"
   height="461.63385mm"
   viewBox="0 0 461.63498 461.63385"
   version="1.1"
   id="svg844"
   inkscape:version="0.92.2 5c3e80d, 2017-08-06"
   sodipodi:docname="wikiproject nature.svg">
  <defs
     id="defs838">
    <clipPath
       clipPathUnits="userSpaceOnUse"
       id="clipPath1637">
      <path
         style="opacity:1;fill:#800000;fill-opacity:1;stroke:none;stroke-width:0.47027972;stroke-linecap:round;stroke-linejoin:round;stroke-miterlimit:4;stroke-dasharray:none;stroke-opacity:1"
         id="path1639"
         sodipodi:type="arc"
         sodipodi:cx="623.66071"
         sodipodi:cy="177.55952"
         sodipodi:rx="203.3512"
         sodipodi:ry="203.3512"
         sodipodi:start="0.54830217"
         sodipodi:end="0.53895244"
         sodipodi:open="true"
         d="M 797.2028,283.55411 A 203.3512,203.3512 0 0 1 518.07206,351.3489 203.3512,203.3512 0 0 1 449.625,72.377384 203.3512,203.3512 0 0 1 728.43576,3.2784396 203.3512,203.3512 0 0 1 798.18622,281.92692" />
    </clipPath>
  </defs>
  <sodipodi:namedview
     id="base"
     pagecolor="#ffffff"
     bordercolor="#666666"
     borderopacity="1.0"
     inkscape:pageopacity="0.0"
     inkscape:pageshadow="2"
     inkscape:zoom="0.175"
     inkscape:cx="378.51541"
     inkscape:cy="811.89411"
     inkscape:document-units="mm"
     inkscape:current-layer="layer2"
     showgrid="false"
     inkscape:snap-global="false"
     fit-margin-top="0"
     fit-margin-left="0"
     fit-margin-right="0"
     fit-margin-bottom="0"
     inkscape:window-width="1557"
     inkscape:window-height="1044"
     inkscape:window-x="0"
     inkscape:window-y="0"
     inkscape:window-maximized="0" />
  <metadata
     id="metadata841">
    <rdf:RDF>
      <cc:Work
         rdf:about="">
        <dc:format>image/svg+xml</dc:format>
        <dc:type
           rdf:resource="http://purl.org/dc/dcmitype/StillImage" />
        <dc:title></dc:title>
      </cc:Work>
    </rdf:RDF>
  </metadata>
  <g
     inkscape:groupmode="layer"
     id="layer2"
     inkscape:label="Layer 2"
     style="display:inline"
     transform="translate(-392.08724,54.769309)">
    <path
       style="opacity:1;fill:#ffffff;fill-opacity:1;stroke:#008033;stroke-width:5.27649832;stroke-linecap:round;stroke-linejoin:round;stroke-miterlimit:4;stroke-dasharray:none;stroke-opacity:1"
       id="path1417-6"
       sodipodi:type="arc"
       sodipodi:cx="622.90417"
       sodipodi:cy="176.04819"
       sodipodi:rx="228.15831"
       sodipodi:ry="228.15831"
       sodipodi:start="0.54830217"
       sodipodi:end="0.53895244"
       sodipodi:open="true"
       d="M 817.61692,294.9732 A 228.15831,228.15831 0 0 1 504.43461,371.03838 228.15831,228.15831 0 0 1 427.6376,58.034722 228.15831,228.15831 0 0 1 740.4609,-19.493705 228.15831,228.15831 0 0 1 818.72031,293.14752" />
    <path
       style="opacity:1;fill:#cccccc;fill-opacity:1;stroke:none;stroke-width:0.5;stroke-linecap:round;stroke-linejoin:round;stroke-miterlimit:4;stroke-dasharray:none;stroke-opacity:1"
       id="path1417-3"
       sodipodi:type="arc"
       sodipodi:cx="622.90472"
       sodipodi:cy="176.04762"
       sodipodi:rx="216.20239"
       sodipodi:ry="216.20239"
       sodipodi:start="0.54830217"
       sodipodi:end="0.53895244"
       sodipodi:open="true"
       d="M 807.41417,288.74075 A 216.20239,216.20239 0 0 1 510.64318,360.81997 216.20239,216.20239 0 0 1 437.87048,64.218281 216.20239,216.20239 0 0 1 734.30126,-9.2475132 216.20239,216.20239 0 0 1 808.45974,287.01074" />
  </g>
  <g
     inkscape:label="Layer 1"
     inkscape:groupmode="layer"
     id="layer1"
     style="display:inline"
     transform="translate(-392.08724,54.769309)">
    <g
       id="g1586"
       clip-path="url(#clipPath1637)">
      <path
         sodipodi:nodetypes="ccccccccccccccccccccccccsccccccccccccccccccc"
         inkscape:connector-curvature="0"
         id="path1397"
         d="m 664.49649,92.136698 c -1.44969,-0.0547 -2.95306,0.2983 -4.35891,1.2423 -1.49837,-1.28388 -5.20061,-2.23278 -6.49108,0.85266 -0.98947,-0.88291 -4.81304,-2.18863 -6.10918,0.84491 -1.83444,4.69266 -5.96017,7.218722 -9.72654,10.208682 -1.45206,4.24752 -4.53817,0.16473 -3.10524,-2.47634 3.34837,-3.854112 -3.24414,-3.667932 -5.96656,-4.278802 -3.5081,-0.83989 -7.25299,1.43032 -10.30583,0.99012 -4.31089,-2.87012 -6.59488,2.154812 -9.04958,4.570782 -5.14949,1.10929 -5.95628,5.65059 -7.31686,9.81645 -3.43867,4.17225 3.89422,5.11894 2.74247,8.94467 -1.7472,2.31218 1.59067,5.09769 0.80925,6.30608 -5.57948,0.12026 1.71964,3.29316 -1.04593,5.28185 -5.45462,2.59427 3.7675,3.68217 -0.12868,5.47718 -3.05713,1.97329 -4.46168,6.01385 -3.95118,9.57203 2.9303,2.0771 -2.13334,2.54959 0.20051,5.05447 3.55819,0.0843 -0.27738,5.52327 3.09387,4.87515 -1.27479,1.55739 1.96831,9.05121 6.75617,8.9116 3.06854,1.68875 6.7669,3.21489 10.28981,2.07895 2.4504,-3.20318 5.86573,0.67347 8.29614,-0.71572 1.27147,10.66462 3.16671,21.0176 -0.82786,34.31522 -5.88504,5.22762 -5.93886,14.71692 -13.04468,18.82882 -5.56372,3.0308 -5.12568,8.82515 -6.73292,14.04514 6.48429,30.6503 29.0613,21.06884 49.17736,17.63975 -0.76803,-3.67694 -2.41306,-7.11648 -3.28249,-10.76265 -2.54062,-10.65478 -7.17924,-19.38993 -12.55789,-28.72228 -3.00668,-9.91532 -2.15241,-20.99038 1.07074,-30.78468 0.75377,-4.77991 4.09902,-8.63962 6.68124,-12.67778 1.86645,-1.23167 4.52669,1.58999 6.25285,-0.34055 3.17387,-0.49069 7.76212,-0.0358 10.57041,-3.16001 4.48215,-3.04989 -2.25569,-8.9255 2.66186,-10.40247 -0.42809,-4.39495 3.78529,-0.22969 6.42131,-1.71824 2.4014,-3.94134 6.86785,-4.3154 10.90269,-5.795 1.54316,-3.63305 5.48487,-8.21891 3.60289,-12.35066 -3.26604,-1.63837 2.10984,-1.13014 1.18907,-3.68557 -4.5727,-2.234 2.74412,-8.41564 -1.42524,-12.33671 1.03182,-2.72689 0.0419,-7.86963 -4.55837,-7.5799 1.93512,-2.32321 -1.10236,-4.60789 -3.41685,-4.10621 -5.43632,3.32378 -6.17812,-5.15562 -10.68772,-4.90564 -0.12557,0.0574 -0.25108,0.0731 -0.37207,0.0382 0.12722,-0.0199 0.2505,-0.0315 0.37207,-0.0382 1.1973,-0.54753 2.39258,-4.92879 -0.42271,-6.243552 0.65088,-0.85598 2.6574,-4.92543 -1.20096,-4.97334 -1.36608,-1.02635 -3.14149,-1.77043 -5.00538,-1.84071 z"
         style="fill:#008033;fill-rule:evenodd;stroke:none;stroke-width:0.26458332px;stroke-linecap:butt;stroke-linejoin:miter;stroke-opacity:1" />
      <path
         inkscape:connector-curvature="0"
         id="path1403-3"
         d="m 626.16265,10.405477 c -0.53679,0.0135 -1.12456,0.083 -1.76993,0.21549 -6.83993,3.54744 -15.43795,0.62671 -20.74653,7.035748 -3.14672,7.637209 -9.68342,-5.155908 -15.12828,1.98541 -7.13489,1.45985 -17.09879,-10.3434082 -26.49245,-4.707205 -8.55312,-2.249273 -14.1421,9.589752 -23.62801,6.205305 -4.81144,0.836377 -6.16801,9.031654 -11.60343,4.494816 -4.41096,0.379341 -9.53645,5.663429 -11.75639,4.106207 5.27842,5.760272 -5.66055,2.073352 -6.10144,6.599082 -7.37626,-9.76042 -14.89341,3.451111 -22.03379,6.076633 -8.64453,3.715567 -6.11247,13.423699 -5.1263,19.909377 -6.36053,3.323251 -5.19293,10.205805 0.70176,13.323215 -3.57155,-1.269349 -9.16081,-0.611428 -7.55974,4.535641 -9.02318,-0.513191 -15.34427,7.133511 -9.68468,15.167039 1.79246,11.162985 15.37854,2.820371 18.73529,11.379155 5.48181,2.11552 9.24829,-7.897844 12.1114,0.33796 5.04648,5.84094 13.0184,-10.116203 9.61699,0.54415 -3.06095,8.28384 4.62362,11.02626 10.79882,12.63746 -6.13156,6.90141 2.31628,11.28539 8.68474,8.38399 11.5064,5.21796 24.00172,7.10688 36.48615,6.70863 0.24198,13.8031 0.77261,27.64017 -1.76889,41.21247 -2.59581,11.07225 -13.54303,17.30062 -16.81448,28.20966 -5.58778,12.6591 -10.76768,25.68774 -18.52858,37.15277 -1.10982,2.46801 -2.30797,5.48238 -5.16506,6.30971 18.03046,14.75438 34.60537,31.0145 81.01676,16.40932 -3.76385,-3.09208 -8.85399,-3.79113 -12.81006,-6.63371 -14.92235,-1.34495 -11.08447,-15.50466 -11.49801,-26.15137 1.6991,-19.83965 0.12756,-39.84043 1.59835,-59.73848 0.11696,-10.17828 -0.76567,-21.8855 9.58753,-27.71407 3.71536,-4.2391 7.21127,-9.08713 9.77615,-14.33039 7.77308,-1.19421 15.60352,-1.87498 23.46265,-1.09451 9.92219,1.01196 11.51398,-10.08984 9.37204,-17.41289 9.77662,1.06919 15.46307,-8.84028 11.1342,-17.274914 -4.52036,-6.479151 8.75202,-3.090529 6.32984,-11.490251 -2.71828,-8.50886 13.25784,-10.14412 8.03415,-19.685619 -1.43195,-6.498611 -0.42291,-5.46698 4.39766,-6.31176 -3.56362,-4.88931 5.73429,-13.43402 -3.54965,-13.7604 -8.93333,2.425809 -1.56379,-10.980195 -10.65413,-9.824723 -4.81134,-0.0793 0.53977,-8.86635 -6.40167,-9.831442 -8.36348,-0.804936 -4.97134,-13.180104 -13.02298,-12.977504 z"
         style="fill:#cccccc;fill-opacity:1;fill-rule:evenodd;stroke:#cccccc;stroke-width:0;stroke-linecap:butt;stroke-linejoin:miter;stroke-miterlimit:4;stroke-dasharray:none;stroke-opacity:1" />
      <path
         inkscape:connector-curvature="0"
         id="path1403"
         d="m 621.70931,-0.97540713 c -0.53679,0.01351 -1.12456,0.08303 -1.76993,0.215492 -6.83993,3.54743493 -15.43794,0.62670497 -20.74653,7.03574393 -3.14671,7.6372092 -9.68342,-5.155903 -15.12828,1.98541 -7.13489,1.4598494 -17.09879,-10.3434119 -26.49244,-4.707205 -8.55312,-2.249273 -14.1421,9.5897522 -23.62801,6.2053054 -4.81144,0.8363768 -6.16801,9.0316538 -11.60343,4.4948158 -4.41096,0.379341 -9.53645,5.663429 -11.75639,4.106207 5.27842,5.760271 -5.66055,2.073352 -6.10144,6.599082 -7.37626,-9.76042 -14.89341,3.451111 -22.03379,6.076632 -8.64453,3.715568 -6.11247,13.423699 -5.1263,19.909377 -6.36053,3.323251 -5.19293,10.205806 0.70176,13.323216 -3.57155,-1.26935 -9.16081,-0.61143 -7.55974,4.53564 -9.02318,-0.51319 -15.34427,7.13351 -9.68468,15.16704 1.79246,11.16299 15.37854,2.82037 18.73529,11.37915 5.48181,2.11552 9.24829,-7.89784 12.1114,0.33796 5.04648,5.840951 13.0184,-10.1162 9.61699,0.54415 -3.06095,8.283851 4.62362,11.026271 10.79882,12.637471 -6.13156,6.90141 2.31628,11.28539 8.68474,8.38399 11.5064,5.21796 24.00172,7.10688 36.48615,6.70863 0.24198,13.8031 0.77261,27.64017 -1.76889,41.21247 -2.59581,11.07225 -13.54303,17.30062 -16.81448,28.20966 -5.58778,12.65909 -10.76768,25.68773 -18.52858,37.15276 -1.10982,2.46801 -2.30797,5.48238 -5.16506,6.30971 18.03046,14.75438 34.60537,31.01451 81.01676,16.40932 -3.76386,-3.09208 -8.85399,-3.79113 -12.81007,-6.63371 -14.92235,-1.34496 -11.08447,-15.50466 -11.49801,-26.15137 1.6991,-19.83964 0.12756,-39.84042 1.59835,-59.73847 0.11696,-10.17828 -0.76567,-21.8855 9.58753,-27.71407 3.71536,-4.2391 7.21127,-9.08713 9.77615,-14.33039 7.77308,-1.19421 15.60352,-1.87498 23.46265,-1.09451 9.92219,1.01196 11.51398,-10.08984 9.37204,-17.41289 9.77662,1.06919 15.46307,-8.840291 11.1342,-17.274921 -4.52036,-6.47915 8.75202,-3.09053 6.32984,-11.49025 -2.71828,-8.50886 13.25784,-10.14412 8.03415,-19.68562 -1.43195,-6.498611 -0.42291,-5.46698 4.39766,-6.31176 -3.56362,-4.889309 5.73429,-13.43402 -3.54965,-13.760399 -8.93333,2.425808 -1.56379,-10.980195 -10.65413,-9.824723 -4.81134,-0.0793 0.53977,-8.86635 -6.40167,-9.831442 -8.36348,-0.804936 -4.97134,-13.1801051 -13.02298,-12.97750213 z"
         style="fill:#008033;fill-rule:evenodd;stroke:none;stroke-width:0.26458332px;stroke-linecap:butt;stroke-linejoin:miter;stroke-opacity:1" />
      <path
         sodipodi:nodetypes="scscs"
         inkscape:connector-curvature="0"
         id="path1411-7"
         d="m 603.27847,206.68632 c -24.19337,0.0214 -56.57527,2.70307 -86.81958,28.20322 -56.36382,118.59435 85.92838,223.05235 181.15177,185.45466 19.6569,-7.76123 5.0127,-89.00469 -3.6825,-122.08997 -10.8321,-55.42618 -44.4623,-91.60871 -90.64969,-91.56791 z"
         style="fill:#ffffff;fill-rule:evenodd;stroke:#cccccc;stroke-width:10;stroke-linecap:butt;stroke-linejoin:miter;stroke-miterlimit:4;stroke-dasharray:none;stroke-opacity:1" />
      <path
         sodipodi:nodetypes="scscs"
         inkscape:connector-curvature="0"
         id="path1411"
         transform="scale(0.26458333)"
         d="m 2276.0472,806.74274 c -91.4395,0.0808 -213.8278,10.21633 -328.137,106.59487 -213.0286,448.23059 324.7687,843.03249 684.6683,700.93099 74.2936,-29.3338 18.9455,-336.3957 -13.9183,-461.4424 -40.9401,-209.4848 -168.0466,-346.23764 -342.613,-346.08346 z"
         style="fill:#ffffff;fill-rule:evenodd;stroke:#ffffff;stroke-width:0.83485878px;stroke-linecap:butt;stroke-linejoin:miter;stroke-opacity:1" />
      <rect
         y="256.53622"
         x="550.88837"
         height="31.537804"
         width="273.14944"
         id="rect1509"
         style="opacity:1;fill:#cccccc;fill-opacity:1;stroke:#cccccc;stroke-width:10;stroke-linecap:round;stroke-linejoin:round;stroke-miterlimit:4;stroke-dasharray:none;stroke-opacity:1" />
      <rect
         y="262.87787"
         x="568.66663"
         height="114.55655"
         width="276.94354"
         id="rect1426"
         style="opacity:1;fill:#37abc8;fill-opacity:1;stroke:none;stroke-width:1.17707253;stroke-linecap:round;stroke-linejoin:round;stroke-miterlimit:4;stroke-dasharray:none;stroke-opacity:1" />
      <path
         sodipodi:nodetypes="cscc"
         inkscape:connector-curvature="0"
         id="path1409-5"
         d="m 322.27638,207.03858 c 29.58325,-23.14698 99.50532,-36.09255 139.89434,-29.74203 112.60234,17.70486 116.65901,160.51395 239.49944,203.35356 0.56275,170.01654 -350.2406,55.92142 -379.39378,-173.61153 z"
         style="fill:#ffffff;fill-rule:evenodd;stroke:#cccccc;stroke-width:20;stroke-linecap:butt;stroke-linejoin:miter;stroke-miterlimit:4;stroke-dasharray:none;stroke-opacity:1" />
      <path
         sodipodi:nodetypes="cscc"
         inkscape:connector-curvature="0"
         id="path1409"
         d="m 321.16856,207.98222 c 29.58325,-23.14698 99.50532,-36.09255 139.89434,-29.74203 112.60234,17.70486 118.17091,161.64786 241.01135,204.48747 0.56274,170.01654 -351.75251,54.78749 -380.90569,-174.74544 z"
         style="fill:#ffffff;fill-rule:evenodd;stroke:#ffffff;stroke-width:0.30522686px;stroke-linecap:butt;stroke-linejoin:miter;stroke-opacity:1" />
    </g>
  </g>
  <g
     style="display:inline"
     inkscape:label="Layer 2 copy"
     id="g1544"
     inkscape:groupmode="layer"
     transform="translate(-392.08724,54.769309)" />
</svg>
